<?xml version="1.0" standalone="no"?>
<!DOCTYPE svg PUBLIC "-//W3C//DTD SVG 20010904//EN"
 "http://www.w3.org/TR/2001/REC-SVG-20010904/DTD/svg10.dtd">
<svg version="1.0" xmlns="http://www.w3.org/2000/svg"
 width="802.000000pt" height="299.000000pt" viewBox="0 0 802.000000 299.000000"
 preserveAspectRatio="xMidYMid meet">

<g transform="translate(0.000000,299.000000) scale(0.100000,-0.100000)"
fill="#000000" stroke="none">
<path d="M0 1495 l0 -1495 4010 0 4010 0 0 1495 0 1495 -4010 0 -4010 0 0
-1495z m5675 795 l430 -430 182 182 183 183 137 -138 138 -137 -230 -230 -230
-230 -180 0 -180 0 -615 615 -615 615 275 0 275 0 430 -430z m1090 210 l-220
-220 395 -395 c217 -217 390 -395 385 -395 -6 0 -188 178 -405 395 l-395 395
220 220 c121 121 224 220 230 220 5 0 -89 -99 -210 -220z m530 0 l-220 -220
395 -398 395 -397 -400 397 -400 398 220 220 c121 121 222 220 225 220 3 0
-94 -99 -215 -220z m-4395 95 l0 -105 60 0 60 0 0 -110 0 -110 -60 0 -60 0 0
-218 c0 -156 3 -221 12 -230 7 -7 31 -12 55 -12 l43 0 0 -121 0 -121 -112 4
c-90 2 -121 7 -153 24 -45 23 -80 69 -95 124 -6 24 -9 201 -8 466 l3 429 120
42 c66 23 123 42 128 42 4 1 7 -46 7 -104z m-2351 -342 c30 -236 57 -432 62
-438 6 -6 9 -6 10 0 0 6 24 201 52 435 l52 425 149 3 148 3 -6 -28 c-3 -16
-37 -237 -76 -492 -41 -264 -78 -477 -87 -495 -26 -51 -54 -76 -107 -91 -57
-17 -204 -20 -259 -4 -51 14 -102 61 -121 112 -15 39 -156 921 -156 974 l0 23
143 0 143 0 53 -427z m1051 231 c56 -17 104 -65 119 -121 6 -21 11 -127 11
-235 l0 -198 -195 0 -195 0 0 100 0 100 65 0 65 0 0 62 c0 75 -16 98 -70 98
-73 0 -75 -5 -78 -220 -2 -106 -1 -203 2 -215 13 -52 25 -55 202 -55 l164 0 0
-116 0 -116 -242 4 c-238 3 -244 4 -288 28 -33 18 -52 38 -70 75 l-25 50 0
315 c0 300 1 317 21 355 27 53 104 93 200 105 88 11 252 3 314 -16z m710 15
c92 -15 138 -43 169 -104 l26 -49 3 -383 3 -383 -33 0 c-18 0 -77 -3 -130 -7
l-97 -6 -3 347 c-3 331 -4 348 -22 362 -28 20 -63 17 -86 -6 -19 -19 -20 -33
-20 -360 l0 -340 -136 0 -135 0 3 383 3 382 27 55 c31 63 66 89 148 106 70 16
196 17 280 3z m1160 -103 l0 -114 -42 -14 c-76 -23 -78 -34 -78 -390 l0 -308
-130 0 -130 0 0 343 c0 375 6 429 57 495 44 58 148 94 296 101 l27 1 0 -114z
m581 87 c59 -27 94 -73 115 -152 13 -52 15 -110 12 -334 -3 -267 -3 -273 -28
-322 -44 -88 -113 -115 -293 -115 -114 0 -203 18 -250 52 -16 12 -41 46 -56
77 -25 54 -26 63 -29 292 -6 336 13 430 97 482 61 37 117 47 256 44 106 -3
139 -7 176 -24z m749 6 c53 -18 89 -57 105 -114 16 -59 75 -550 75 -627 -1
-70 -29 -132 -72 -154 -26 -14 -64 -19 -180 -22 l-148 -4 0 106 0 106 38 0
c58 0 82 10 88 37 4 14 -6 120 -20 236 -21 160 -31 215 -44 225 -19 15 -28 15
-53 2 -18 -10 -19 -26 -19 -470 l0 -460 -130 0 -130 0 0 483 c0 309 4 496 11
520 21 78 97 134 204 151 50 8 238 -3 275 -15z m-4287 -1270 c31 -16 37 -28
37 -71 l0 -38 -44 0 c-36 0 -45 4 -49 21 -8 29 -31 19 -35 -14 -3 -26 -2 -27
47 -27 l51 0 0 -40 0 -40 -50 0 c-49 0 -50 -1 -50 -30 0 -23 4 -30 20 -30 13
0 20 7 20 20 0 17 7 20 50 20 l50 0 0 -39 c0 -59 -25 -83 -93 -89 -68 -5 -101
2 -127 28 -18 18 -20 34 -20 149 0 71 3 137 6 146 15 38 137 60 187 34z m2682
-14 c17 -16 25 -35 25 -60 0 -35 0 -35 -43 -35 -32 0 -45 5 -55 21 -11 17 -16
18 -28 8 -11 -9 -14 -32 -12 -98 3 -74 6 -86 21 -89 12 -3 20 4 24 17 4 17 13
21 49 21 l44 0 0 -43 c0 -62 -23 -80 -109 -85 -61 -4 -70 -1 -97 21 -28 24
-29 28 -32 134 -5 134 7 187 46 201 15 6 53 11 85 11 49 1 62 -3 82 -24z
m1235 -5 c0 -23 4 -30 20 -30 17 0 20 -7 20 -40 0 -33 -3 -40 -20 -40 -18 0
-20 -7 -20 -70 0 -63 2 -70 20 -70 17 0 20 -7 20 -45 l0 -45 -40 0 c-30 0 -47
7 -66 25 -24 24 -24 27 -22 171 l3 147 35 13 c49 18 50 17 50 -16z m1123 19
c31 -16 37 -28 37 -71 l0 -38 -45 0 c-32 0 -45 4 -45 14 0 15 -24 28 -34 19
-3 -4 -6 -17 -6 -30 0 -22 3 -23 70 -23 l70 0 0 -90 c0 -76 -3 -93 -19 -109
-41 -41 -171 -41 -203 -1 -15 19 -18 43 -18 160 0 143 4 156 50 173 28 10 121
7 143 -4z m2282 -14 c17 -16 25 -35 25 -60 0 -35 0 -35 -43 -35 -32 0 -45 5
-55 21 -11 17 -16 18 -28 8 -11 -9 -14 -32 -12 -98 3 -74 6 -86 21 -89 12 -3
20 4 24 17 4 17 13 21 49 21 l44 0 0 -43 c0 -62 -23 -80 -109 -85 -61 -4 -70
-1 -97 21 -28 24 -29 28 -32 134 -5 125 8 185 40 201 13 6 51 11 86 11 54 1
66 -2 87 -24z m-6655 -165 l0 -180 -45 0 -45 0 0 180 0 180 45 0 45 0 0 -180z
m1020 0 l0 -180 -45 0 -45 0 0 180 0 180 45 0 45 0 0 -180z m2110 0 l0 -180
-45 0 -45 0 0 180 0 180 45 0 45 0 0 -180z m270 0 l0 -180 -45 0 -45 0 0 180
0 180 45 0 45 0 0 -180z m2511 170 c16 -9 19 -22 19 -92 0 -101 -11 -118 -82
-118 l-48 0 0 -70 0 -70 -50 0 -50 0 0 180 0 180 96 0 c52 0 104 -5 115 -10z
m139 -125 c0 -126 1 -135 19 -135 10 0 21 7 25 15 4 10 20 15 51 15 45 0 45 0
45 -35 0 -25 -8 -44 -26 -62 -23 -23 -31 -25 -99 -21 -110 5 -109 4 -113 198
l-4 160 51 0 51 0 0 -135z m250 0 c0 -128 1 -135 20 -135 11 0 20 7 20 15 0
11 12 15 46 15 l45 0 -3 -47 c-4 -59 -26 -73 -116 -73 -54 0 -67 4 -87 25 -24
24 -25 28 -25 180 l0 155 50 0 50 0 0 -135z m-6692 62 c14 -15 17 -38 17 -150
l0 -132 -47 -3 -48 -3 0 115 c0 96 -3 116 -15 116 -12 0 -15 -19 -15 -115 l0
-115 -45 0 -45 0 0 133 c0 171 5 179 118 174 43 -2 68 -8 80 -20z m262 -151
c0 -169 -1 -175 -22 -190 -23 -16 -111 -22 -154 -10 -23 6 -44 42 -44 74 0 15
7 20 27 20 25 0 25 1 9 13 -14 10 -21 36 -29 110 -15 147 -10 153 136 156 l77
1 0 -174z m355 149 c24 -23 25 -29 25 -155 l0 -130 -45 0 -45 0 0 115 c0 96
-3 115 -15 115 -12 0 -15 -19 -15 -115 l0 -115 -51 0 -51 0 4 136 c3 129 4
137 27 155 17 14 39 19 83 19 49 0 63 -4 83 -25z m262 2 c13 -12 19 -39 21
-92 l4 -75 -67 0 c-58 0 -66 -2 -63 -17 2 -14 15 -19 56 -21 l52 -3 0 -41 0
-40 -85 3 c-113 5 -118 10 -123 137 -6 151 11 174 126 169 43 -2 68 -8 79 -20z
m236 12 c33 -18 37 -28 37 -106 l0 -73 -66 0 c-57 0 -65 -2 -62 -17 2 -14 15
-19 61 -21 l57 -3 0 -40 0 -41 -91 4 c-118 4 -119 6 -119 152 0 61 4 116 8
123 19 30 132 44 175 22z m197 -24 c0 -22 -8 -43 -20 -55 -17 -17 -20 -33 -20
-120 l0 -100 -45 0 -45 0 0 118 c0 74 5 126 13 142 15 29 51 50 90 50 24 0 27
-3 27 -35z m334 16 c13 -11 16 -37 16 -152 l0 -139 -45 0 -45 0 0 115 c0 96
-3 115 -15 115 -12 0 -15 -19 -15 -115 l0 -115 -45 0 -45 0 0 133 c0 134 5
157 40 171 26 10 137 1 154 -13z m266 -156 l0 -175 -25 -16 c-19 -12 -42 -15
-95 -12 -38 2 -74 8 -80 14 -6 6 -13 27 -17 47 -5 35 -4 37 23 37 25 0 26 1
10 13 -29 22 -49 224 -23 245 19 15 45 20 130 21 l77 1 0 -175z m741 156 c22
-18 24 -28 27 -130 4 -107 3 -111 -22 -136 -21 -21 -34 -25 -84 -25 -94 0
-106 15 -110 137 -5 148 10 171 114 172 37 1 59 -5 75 -18z m255 -6 c24 -24
25 -28 22 -152 l-3 -128 -42 -3 -42 -3 -3 113 c-2 93 -6 113 -18 113 -12 0
-16 -20 -18 -112 l-3 -113 -45 0 -46 0 4 136 c3 129 4 137 27 155 17 14 39 19
83 19 49 0 63 -4 84 -25z m234 -15 c0 -38 -1 -40 -32 -40 -50 0 -64 -14 -36
-32 58 -39 78 -66 78 -108 0 -30 -6 -47 -25 -65 -21 -22 -33 -25 -95 -25 l-70
0 0 40 c0 40 0 40 39 40 22 0 42 4 45 8 3 5 -15 25 -39 46 -42 34 -45 40 -45
85 0 75 18 89 118 90 l62 1 0 -40z m132 -77 c2 -70 7 -118 13 -118 6 0 11 48
13 118 l3 117 44 0 45 0 0 -133 c0 -166 -2 -170 -98 -175 -61 -4 -73 -1 -91
17 -19 19 -21 32 -21 156 l0 135 45 0 44 0 3 -117z m744 92 c24 -24 25 -28 22
-152 l-3 -128 -42 -3 -42 -3 -3 113 c-2 93 -6 113 -18 113 -12 0 -16 -20 -18
-112 l-3 -113 -45 0 -46 0 4 136 c3 129 4 137 27 155 17 14 39 19 83 19 49 0
63 -4 84 -25z m274 -135 c0 -213 -3 -220 -120 -220 -71 0 -100 19 -100 66 0
28 4 34 22 34 20 0 20 1 5 18 -10 11 -20 53 -28 115 -10 88 -10 100 6 117 21
23 39 27 138 29 l77 1 0 -160z m680 125 c0 -22 -8 -43 -20 -55 -17 -17 -20
-33 -20 -120 l0 -100 -45 0 -45 0 0 118 c0 74 5 126 13 142 15 29 51 50 90 50
24 0 27 -3 27 -35z m201 16 c22 -18 24 -28 27 -130 4 -107 3 -111 -22 -136
-21 -21 -34 -25 -84 -25 -44 0 -66 5 -83 19 -23 18 -24 25 -24 136 0 111 1
118 24 136 33 27 129 27 162 0z m149 -95 c0 -88 3 -115 14 -119 8 -3 17 -3 20
0 3 4 6 57 6 120 l0 113 46 0 46 0 -4 -136 c-3 -129 -4 -137 -27 -155 -17 -14
-39 -19 -81 -19 -42 0 -64 5 -81 19 -23 18 -24 26 -27 155 l-4 136 46 0 46 0
0 -114z m340 96 c23 -19 39 -104 40 -214 0 -67 -12 -78 -84 -78 -46 0 -46 0
-46 -35 0 -35 0 -35 -45 -35 l-45 0 0 154 c0 166 7 201 42 216 40 15 114 12
138 -8z m150 -235 c0 -48 -4 -57 -35 -87 -28 -27 -38 -31 -47 -22 -10 10 -10
17 0 32 7 12 8 20 2 20 -5 0 -10 25 -10 55 l0 55 45 0 45 0 0 -53z m1270 -247
l0 -30 -3790 0 -3790 0 0 30 0 30 3790 0 3790 0 0 -30z m-7340 -133 c21 -10
25 -20 27 -57 l1 -45 -7 42 c-4 24 -11 46 -15 50 -4 4 -46 10 -94 14 l-87 6
75 1 c43 1 86 -4 100 -11z m140 -17 c0 -29 1 -30 38 -24 25 4 43 1 57 -9 18
-14 20 -28 21 -149 l1 -133 -6 126 c-7 139 -16 164 -60 156 -14 -2 -34 -8 -43
-12 -15 -6 -18 -2 -18 28 0 34 -2 36 -37 40 l-38 4 43 1 c40 2 42 1 42 -28z
m978 23 c-30 -3 -38 -9 -38 -24 0 -15 7 -19 35 -19 19 0 35 -4 35 -10 0 -5
-16 -10 -35 -10 l-34 0 -4 -137 -3 -138 -2 173 -2 172 43 -2 42 -1 -37 -4z
m750 -165 l-2 -173 -3 168 -3 167 -35 0 -35 0 -3 -167 -3 -168 -2 173 -2 172
45 0 45 0 -2 -172z m2510 165 l-37 -4 -3 -132 c-3 -116 -5 -132 -20 -135 -13
-3 -18 3 -17 20 1 17 3 18 6 6 11 -41 23 -13 23 52 0 62 -2 70 -19 70 -11 0
-22 -6 -24 -12 -4 -10 -6 -10 -6 0 -1 8 8 16 19 19 13 3 20 14 20 29 0 22 -4
24 -44 24 -48 0 -55 -6 -67 -54 -6 -28 -7 -29 -8 -6 -2 47 24 70 80 70 48 0
49 1 49 30 0 29 2 30 43 28 l42 -1 -37 -4z m265 -4 c-18 -5 -36 -15 -40 -22
-4 -6 -10 -79 -14 -162 l-5 -150 -2 148 c-2 145 -2 148 23 172 13 14 34 25 47
24 18 -1 17 -3 -9 -10z m57 -29 c0 -29 -4 -40 -15 -40 -8 0 -15 -4 -15 -10 0
-5 7 -10 15 -10 10 0 15 -11 15 -35 0 -30 -3 -35 -22 -34 -17 1 -19 2 -5 6 21
6 24 53 2 53 -20 0 -19 27 1 38 12 7 15 19 12 41 -2 17 -1 31 4 31 4 0 8 -18
8 -40z m1548 -132 l-2 -173 -3 168 -3 167 -35 0 -35 0 -3 -167 -3 -168 -2 173
-2 172 45 0 45 0 -2 -172z m130 0 l-2 -173 -3 168 -3 167 -35 0 -35 0 -3 -167
-3 -168 -2 173 -2 172 45 0 45 0 -2 -172z m-6570 151 c-10 -5 -19 -20 -19 -32
-1 -18 -2 -18 -6 -4 -5 20 13 47 31 47 6 0 3 -5 -6 -11z m5035 -36 c-7 -2 -21
-2 -30 0 -10 3 -4 5 12 5 17 0 24 -2 18 -5z m1944 1 c-3 -3 -12 -4 -19 -1 -8
3 -5 6 6 6 11 1 17 -2 13 -5z m-6422 -11 c-47 -12 -55 -30 -55 -133 0 -101 8
-124 45 -133 18 -4 18 -5 -2 -6 -40 -2 -53 34 -53 141 0 85 3 101 20 118 11
11 30 19 43 19 20 -1 20 -2 2 -6z m127 -10 c14 -13 18 -31 18 -90 l0 -73 -61
0 c-77 0 -78 -24 -1 -28 l52 -3 -2 -37 c-1 -36 -1 -36 -5 -5 -4 31 -6 32 -56
35 l-52 3 0 75 c0 70 1 75 23 78 19 3 22 -1 22 -27 0 -24 -4 -31 -20 -31 -15
0 -20 -7 -20 -25 0 -24 3 -25 55 -25 l55 0 0 69 c0 70 -7 84 -45 94 -19 4 -19
5 -1 6 11 0 28 -6 38 -16z m122 6 c-17 -5 -36 -19 -42 -31 -8 -18 -11 -19 -11
-6 -1 21 36 48 64 47 14 -1 10 -4 -11 -10z m136 2 c-14 -4 -30 -18 -37 -31 -7
-14 -13 -19 -13 -11 0 22 31 51 54 50 18 -1 18 -2 -4 -8z m131 -1 c10 -6 19
-18 19 -28 0 -13 -3 -12 -15 5 -8 12 -25 24 -38 26 -16 3 -17 5 -4 6 10 0 27
-4 38 -9z m419 3 c-51 -3 -69 -8 -82 -24 -14 -17 -18 -18 -18 -6 0 26 31 36
100 35 l65 -2 -65 -3z m286 -3 c-16 -5 -33 -15 -37 -22 -5 -7 -9 -56 -9 -109
0 -100 8 -123 45 -132 18 -4 18 -5 -2 -6 -39 -2 -53 34 -53 139 0 109 13 141
58 139 l27 -1 -29 -8z m128 -12 c10 -13 15 -41 15 -68 l-2 -45 -6 52 c-7 56
-14 68 -46 76 -18 4 -18 5 2 6 12 0 29 -9 37 -21z m286 -83 c0 -87 3 -105 15
-105 12 0 15 17 15 90 l0 90 40 0 40 0 0 -89 c0 -77 2 -90 18 -94 13 -4 11 -5
-5 -6 -22 -1 -23 2 -23 89 l0 90 -30 0 -29 0 -3 -87 c-3 -83 -4 -88 -25 -91
-23 -3 -23 -2 -23 102 l0 105 -37 4 -38 4 43 1 42 2 0 -105z m220 -18 c0 -165
3 -161 -142 -164 -85 -1 -119 2 -135 13 -13 8 -23 19 -23 24 0 6 9 1 20 -10
22 -22 79 -27 112 -9 14 8 23 8 31 0 16 -16 79 -13 105 5 21 14 22 23 22 134
l0 119 -37 4 -38 4 43 1 42 2 0 -123z m105 116 c-41 -10 -45 -22 -45 -133 0
-111 4 -123 45 -133 19 -4 18 -5 -2 -6 -44 -2 -53 22 -53 139 0 117 9 141 53
139 20 -1 21 -2 2 -6z m123 -5 c7 -7 12 -21 11 -32 0 -20 -1 -20 -9 2 -5 12
-20 27 -32 32 -22 8 -22 9 -2 9 11 1 25 -4 32 -11z m150 -35 l-1 -48 -4 43
c-4 40 -5 42 -38 42 -32 0 -34 -2 -38 -37 l-4 -38 -1 43 -2 42 45 0 45 0 -2
-47z m131 30 c0 -11 -3 -13 -6 -5 -2 6 -20 12 -38 12 -18 0 -36 -6 -38 -12 -3
-8 -6 -6 -6 5 -1 14 8 17 44 17 36 0 45 -3 44 -17z m131 10 c-51 -3 -69 -8
-82 -24 -14 -17 -18 -18 -18 -6 0 26 31 36 100 35 l65 -2 -65 -3z m286 -3
c-16 -5 -33 -15 -37 -22 -5 -7 -9 -56 -9 -109 0 -100 8 -123 45 -132 18 -4 18
-5 -2 -6 -39 -2 -53 34 -53 139 0 109 13 141 58 139 l27 -1 -29 -8z m128 -12
c10 -13 15 -41 15 -68 l-2 -45 -6 52 c-7 56 -14 68 -46 76 -18 4 -18 5 2 6 12
0 29 -9 37 -21z m240 12 c-35 -14 -39 -28 -45 -155 l-6 -120 1 126 c1 134 9
160 50 158 l21 0 -21 -9z m132 -4 c17 -13 19 -29 22 -140 l4 -126 -39 2 c-37
1 -37 1 -5 5 l32 4 0 105 c0 112 -8 140 -43 154 -14 6 -16 9 -6 9 8 1 24 -5
35 -13z m120 4 c-16 -5 -33 -15 -37 -22 -5 -7 -9 -56 -9 -109 0 -100 8 -123
45 -132 18 -4 18 -5 -2 -6 -40 -2 -53 34 -53 141 0 85 3 101 20 118 11 11 30
20 43 19 18 -1 17 -2 -7 -9z m138 -12 c11 -15 16 -45 16 -90 l0 -68 -61 0
c-77 0 -78 -24 -1 -28 l52 -3 -2 -37 c-1 -36 -1 -36 -5 -5 -4 31 -6 32 -56 35
l-52 3 -3 78 c-3 77 -3 77 23 77 21 0 25 -5 25 -30 0 -23 -4 -30 -20 -30 -15
0 -20 -7 -20 -25 0 -24 3 -25 55 -25 l55 0 0 63 c0 66 -12 92 -45 100 -18 4
-18 5 2 6 12 0 29 -9 37 -21z m121 15 c-47 -12 -55 -30 -55 -132 0 -105 4
-115 40 -130 24 -9 24 -10 3 -10 -40 -2 -53 34 -53 141 0 85 3 101 20 118 11
11 30 19 43 19 20 -1 20 -2 2 -6z m127 -10 c14 -13 18 -31 18 -90 l0 -73 -61
0 c-77 0 -78 -24 -1 -28 l52 -3 -2 -37 c-1 -37 -1 -37 -5 -4 -4 30 -6 32 -46
32 -63 0 -68 7 -65 86 3 63 5 69 26 72 12 2 22 -1 22 -6 0 -6 -9 -8 -20 -5
-15 4 -20 0 -20 -16 0 -15 7 -21 23 -22 l22 -2 -22 -4 c-16 -3 -23 -11 -23
-29 0 -22 3 -24 55 -24 l55 0 0 69 c0 70 -7 84 -45 94 -19 4 -19 5 -1 6 11 0
28 -6 38 -16z m621 7 c-12 -5 -26 -17 -32 -27 -6 -10 -11 -13 -11 -6 0 17 29
43 48 42 13 0 11 -3 -5 -9z m131 -6 c9 -8 16 -21 16 -27 0 -7 -5 -4 -11 6 -6
10 -20 22 -32 27 -16 6 -18 9 -5 9 9 1 24 -6 32 -15z m129 5 c-18 -5 -36 -15
-40 -22 -4 -6 -11 -66 -14 -132 l-5 -120 -2 118 c-2 113 -1 119 23 142 13 14
34 25 47 24 18 -1 17 -3 -9 -10z m43 -64 c-11 -9 -16 -36 -19 -111 l-3 -99 -2
103 c-2 83 1 104 13 108 9 4 16 21 17 43 l1 36 4 -35 c3 -23 0 -38 -11 -45z
m217 68 c-40 -8 -53 -40 -53 -131 0 -90 9 -118 43 -132 21 -9 21 -10 -3 -7
-40 3 -51 39 -48 150 3 84 6 101 22 113 11 8 29 13 40 13 19 -2 19 -2 -1 -6z
m131 -9 c12 -11 16 -36 16 -90 l0 -74 -61 0 c-77 0 -78 -24 -1 -28 l52 -3 -2
-37 c-1 -37 -1 -37 -5 -4 -4 30 -6 32 -46 32 -63 0 -68 7 -65 86 3 63 5 69 26
72 12 2 22 -1 22 -6 0 -6 -9 -8 -20 -5 -15 4 -20 0 -20 -16 0 -15 7 -21 23
-22 16 -1 18 -2 5 -6 -11 -3 -18 -14 -18 -29 0 -22 4 -24 50 -24 l50 0 0 69
c0 70 -7 84 -45 94 -19 4 -18 5 2 6 12 0 29 -6 37 -15z m144 -11 c2 -13 7 -23
12 -23 5 0 10 10 12 23 3 19 10 22 51 25 26 2 47 -1 47 -6 0 -13 -49 -129 -50
-117 0 6 9 34 20 63 l20 52 -39 0 c-38 0 -39 -1 -46 -40 -4 -22 -10 -40 -15
-40 -5 0 -11 18 -15 40 -7 39 -8 40 -46 40 -21 0 -39 -2 -39 -4 0 -2 9 -25 20
-51 11 -26 20 -57 20 -70 0 -26 -36 -124 -51 -140 -5 -5 2 19 16 53 30 74 31
96 5 157 -11 26 -20 51 -20 56 0 6 21 9 48 7 40 -3 47 -6 50 -25z m244 18
c-40 -4 -66 -12 -72 -21 -5 -8 -10 -60 -10 -115 0 -106 6 -124 45 -126 17 -1
18 -2 2 -6 -10 -3 -27 3 -38 13 -16 15 -19 31 -19 118 0 134 8 147 93 144 l62
-1 -63 -6z m163 2 c-47 -12 -55 -30 -55 -133 0 -101 8 -124 45 -133 18 -4 18
-5 -2 -6 -40 -2 -53 34 -53 141 0 85 3 101 20 118 11 11 30 19 43 19 20 -1 20
-2 2 -6z m127 -10 c14 -13 18 -31 18 -90 l0 -73 -61 0 c-77 0 -78 -24 -1 -28
l52 -3 -2 -37 c-1 -36 -1 -36 -5 -5 -4 31 -6 32 -56 35 l-52 3 0 75 c0 70 1
75 23 78 12 2 22 -1 22 -6 0 -6 -9 -8 -20 -5 -15 4 -20 0 -20 -16 0 -15 7 -21
23 -22 l22 -2 -22 -4 c-16 -3 -23 -11 -23 -29 0 -22 3 -24 55 -24 l55 0 0 69
c0 70 -7 84 -45 94 -19 4 -19 5 -1 6 11 0 28 -6 38 -16z m381 10 c-13 -2 -30
-14 -38 -26 -12 -17 -15 -18 -15 -5 0 20 27 38 55 36 17 -1 17 -1 -2 -5z m131
-9 c9 -8 16 -23 16 -32 0 -12 -4 -9 -13 8 -7 13 -23 27 -37 31 -23 6 -23 7 -3
8 12 1 29 -6 37 -15z m108 6 c-12 -5 -27 -20 -32 -32 -6 -16 -9 -18 -9 -6 -1
21 26 48 47 47 12 0 10 -3 -6 -9z m142 -12 c12 -17 16 -50 16 -140 l0 -118
-37 2 c-37 1 -37 1 -5 5 l32 4 0 112 c0 62 -4 117 -8 124 -4 7 -19 16 -32 22
-24 9 -24 10 -3 10 12 1 29 -9 37 -21z m214 -15 l-1 -38 -4 33 -4 33 -57 -3
c-49 -3 -58 -6 -69 -28 -9 -17 -13 -20 -13 -8 0 33 29 48 91 48 l59 0 -2 -37z
m92 24 l-35 -12 0 -115 c0 -112 1 -115 25 -127 17 -9 20 -13 8 -13 -39 0 -48
27 -48 137 0 118 11 143 59 142 23 0 22 -1 -9 -12z m135 -1 c16 -11 20 -30 23
-90 l4 -76 -66 0 -66 0 0 35 c0 28 4 35 20 35 14 0 20 7 20 21 0 16 -5 20 -20
16 -11 -3 -20 -1 -20 5 0 5 10 8 23 6 31 -4 38 -58 8 -58 -16 0 -21 -6 -21
-25 0 -24 3 -25 55 -25 l55 0 0 56 c0 63 -12 91 -43 104 -14 6 -16 9 -6 9 8 1
24 -5 34 -13z m-7437 -133 l-2 -138 -6 135 c-3 74 -7 126 -8 116 -1 -11 -5
-17 -8 -13 -9 9 3 37 16 37 6 0 9 -48 8 -137z m98 113 c2 -14 1 -14 -5 1 -3
10 -8 -43 -11 -117 l-6 -135 -2 138 c-2 107 1 138 11 135 6 -3 13 -12 13 -22z
m2751 -58 c-2 -13 -4 -5 -4 17 -1 22 1 32 4 23 2 -10 2 -28 0 -40z m-80 -20
c-2 -13 -4 -3 -4 22 0 25 2 35 4 23 2 -13 2 -33 0 -45z m-2461 -58 l0 -105 -3
103 c-3 81 -7 102 -18 102 -12 0 -15 -21 -17 -107 l-2 -108 -3 99 c-4 112 -1
129 24 124 16 -3 18 -16 19 -108z m481 92 c-12 -13 -17 -43 -20 -112 l-3 -95
-2 102 c-2 88 0 103 16 112 25 15 27 13 9 -7z m171 -14 c3 -23 -1 -28 -17 -28
-16 0 -21 -6 -21 -25 0 -22 4 -24 58 -28 l57 -3 -62 -2 -63 -2 0 35 c0 28 4
35 20 35 14 0 20 7 20 21 0 16 -5 20 -20 16 -11 -3 -20 -1 -20 5 0 5 10 8 23
6 16 -2 23 -11 25 -30z m424 -70 c50 -43 44 -62 -18 -55 l-39 4 43 1 c23 1 42
6 42 11 0 5 -16 19 -34 32 -38 26 -57 57 -55 92 1 14 4 10 9 -13 6 -22 24 -48
52 -72z m394 66 c2 -29 2 -29 -3 -1 -9 52 -23 26 -25 -45 l-2 -73 -3 64 c-2
35 -2 70 1 78 10 24 31 9 32 -23z m740 -24 l1 -55 -4 53 c-3 42 -7 52 -19 48
-7 -3 -14 -1 -14 5 0 6 8 9 18 7 13 -3 17 -14 18 -58z m426 -42 c50 -43 44
-62 -18 -55 l-39 4 43 1 c23 1 42 6 42 11 0 5 -16 19 -34 32 -38 26 -57 57
-55 92 1 14 4 10 9 -13 6 -22 24 -48 52 -72z m394 66 c2 -29 2 -29 -3 -1 -9
52 -23 26 -25 -45 l-2 -73 -3 64 c-2 35 -2 70 1 78 10 24 31 9 32 -23z m380
-74 l0 -105 -3 103 c-3 81 -7 102 -18 102 -12 0 -15 -21 -17 -107 l-2 -108 -3
99 c-4 112 -1 129 24 124 16 -3 18 -16 19 -108z m1141 -12 c-2 -24 -4 -5 -4
42 0 47 2 66 4 43 2 -24 2 -62 0 -85z m121 39 c2 -42 -1 -77 -5 -77 -4 0 -7
34 -5 75 3 64 1 75 -13 75 -14 0 -16 -10 -13 -74 2 -41 0 -72 -4 -69 -10 5
-10 137 -1 147 4 4 14 5 23 4 12 -3 16 -20 18 -81z m73 -101 c-12 -31 -47 -47
-99 -45 -31 1 -29 3 17 9 29 5 58 13 65 20 6 6 13 55 16 108 l5 97 3 -81 c1
-44 -2 -93 -7 -108z m1637 152 c3 -23 -1 -28 -17 -28 -16 0 -21 -6 -21 -25 0
-22 4 -24 58 -28 l57 -3 -63 -2 c-79 -2 -82 -25 -4 -30 l52 -3 -2 -37 c-1 -37
-1 -37 -5 -4 -4 30 -6 32 -47 32 -23 0 -47 5 -54 12 -13 13 -17 130 -5 142 17
17 48 0 51 -26z m240 -80 l-2 -113 -3 108 c-3 91 -6 108 -18 103 -8 -3 -15 -1
-15 4 0 6 9 10 20 10 19 0 20 -6 18 -112z m-6241 -55 c-2 -32 -3 -8 -3 52 0
61 1 87 3 58 2 -29 2 -78 0 -110z m738 148 c-3 -6 13 -24 35 -42 29 -24 40
-39 39 -58 -2 -23 -2 -24 -6 -4 -2 13 -22 38 -44 56 -38 33 -50 57 -28 57 5 0
8 -4 4 -9z m1560 -3 c-3 -7 13 -26 35 -41 31 -22 40 -34 39 -55 -2 -23 -2 -24
-6 -5 -2 13 -22 38 -44 56 -37 32 -50 57 -29 57 5 0 7 -6 5 -12z m2968 4 c-7
-4 -14 -37 -16 -72 l-3 -65 -2 73 c-2 63 0 72 16 72 11 0 13 -3 5 -8z m1199
-1 c-9 -5 -12 -26 -10 -67 3 -59 3 -59 36 -62 30 -3 32 -5 30 -40 l-1 -37 -4
33 c-3 25 -9 32 -27 32 -35 0 -46 20 -46 80 0 57 4 70 24 70 6 0 5 -4 -2 -9z
m-4555 -68 c-2 -16 -4 -5 -4 22 0 28 2 40 4 28 2 -13 2 -35 0 -50z m60 -15
c-2 -13 -4 -3 -4 22 0 25 2 35 4 23 2 -13 2 -33 0 -45z m1690 10 c-2 -13 -4
-5 -4 17 -1 22 1 32 4 23 2 -10 2 -28 0 -40z m80 -5 c-3 -10 -5 -2 -5 17 0 19
2 27 5 18 2 -10 2 -26 0 -35z m-1675 -18 l5 30 2 -32 c1 -23 -3 -33 -14 -33
-11 0 -15 11 -13 48 l1 47 7 -45 c6 -42 6 -43 12 -15z m85 3 c-2 -13 -4 -5 -4
17 -1 22 1 32 4 23 2 -10 2 -28 0 -40z m-1036 -85 c6 -6 23 -14 37 -16 15 -2
8 -4 -15 -3 l-43 1 2 70 c2 66 2 67 5 15 3 -30 9 -60 14 -67z m1560 0 c6 -6
23 -14 37 -16 15 -2 8 -4 -15 -3 l-43 1 2 70 c2 66 2 67 5 15 3 -30 9 -60 14
-67z m2445 32 c14 -33 20 -55 15 -50 -12 13 -51 112 -50 128 0 7 3 5 6 -3 3
-8 16 -42 29 -75z m-3934 41 c2 -19 0 -32 -4 -30 -8 5 -12 64 -4 64 2 0 6 -15
8 -34z m1560 0 c2 -19 0 -32 -4 -30 -8 5 -12 64 -4 64 2 0 6 -15 8 -34z m2290
-31 c3 -16 3 -24 1 -17 -6 18 -23 15 -23 -5 0 -9 -2 -14 -5 -12 -2 3 -2 22 2
43 6 41 18 37 25 -9z m-1336 -52 c10 -7 14 -13 8 -13 -23 1 -36 20 -39 61 l-4
44 8 -39 c5 -22 17 -45 27 -53z m-1844 10 c5 -6 22 -14 36 -16 26 -4 26 -4 -3
-6 -40 -1 -55 15 -54 59 2 33 2 34 6 5 3 -16 9 -35 15 -42z m78 8 c0 -45 -6
-37 -14 19 -4 31 -3 40 4 30 5 -8 10 -30 10 -49z m4775 36 l50 -4 -54 1 c-39
1 -56 5 -58 16 -3 10 -2 11 4 3 5 -6 31 -14 58 -16z m-6377 -35 l-1 -37 -4 33
c-4 31 -6 32 -48 32 -24 0 -46 3 -48 8 -3 4 19 5 49 4 l54 -4 -2 -36z m1682
-19 c17 -9 20 -13 8 -13 -25 0 -48 28 -47 58 1 27 1 27 8 -3 3 -17 16 -35 31
-42z m127 15 c-2 -13 -4 -5 -4 17 -1 22 1 32 4 23 2 -10 2 -28 0 -40z m-1957
-15 c17 -9 20 -13 8 -13 -24 0 -48 28 -47 53 1 20 2 20 8 -3 4 -14 18 -30 31
-37z m5123 50 c-7 -2 -21 -2 -30 0 -10 3 -4 5 12 5 17 0 24 -2 18 -5z m-4503
-48 c-7 -8 -22 -15 -34 -14 -20 0 -20 1 2 10 13 5 27 19 30 32 5 18 7 19 10 4
2 -10 -2 -24 -8 -32z m1560 0 c-7 -8 -22 -15 -34 -14 -20 0 -20 1 2 10 13 5
27 19 30 32 5 18 7 19 10 4 2 -10 -2 -24 -8 -32z m1477 -3 c-9 -8 -38 -16 -69
-18 l-53 -3 46 7 c51 8 78 26 80 51 1 12 2 12 6 -3 3 -10 -2 -25 -10 -34z
m370 -10 c-11 -5 -37 18 -37 34 0 9 8 5 23 -9 12 -12 18 -24 14 -25z m1706 8
c21 -8 21 -9 2 -9 -25 -1 -45 17 -45 39 1 12 3 11 11 -3 6 -10 20 -22 32 -27z
m500 0 c21 -8 21 -9 2 -9 -25 -1 -45 17 -45 39 1 12 3 11 11 -3 6 -10 20 -22
32 -27z m-4283 -45 c0 -35 0 -35 -45 -35 -43 0 -45 1 -44 28 2 23 2 24 6 5 4
-19 11 -23 39 -23 31 0 34 2 34 30 0 17 2 30 5 30 3 0 5 -16 5 -35z"/>
<path d="M3800 2271 c-6 -12 -10 -107 -10 -240 0 -208 1 -222 20 -241 24 -24
63 -26 84 -4 14 13 16 50 16 248 0 167 -3 235 -12 244 -20 20 -86 15 -98 -7z"/>
<path d="M5460 980 c0 -23 4 -30 20 -30 16 0 20 7 20 30 0 23 -4 30 -20 30
-16 0 -20 -7 -20 -30z"/>
<path d="M6980 1109 c0 -24 4 -30 18 -27 10 2 18 14 20 31 3 22 -1 27 -17 27
-17 0 -21 -6 -21 -31z"/>
<path d="M927 1083 c-7 -6 -3 -41 9 -100 9 -47 24 -21 24 42 0 48 -4 65 -13
65 -8 0 -17 -3 -20 -7z"/>
<path d="M923 878 c2 -7 10 -13 17 -13 7 0 15 6 18 13 2 7 -5 12 -18 12 -13 0
-20 -5 -17 -12z"/>
<path d="M1560 1071 c0 -15 6 -21 21 -21 14 0 19 5 17 17 -5 26 -38 29 -38 4z"/>
<path d="M1810 1070 c0 -13 7 -20 20 -20 13 0 20 7 20 20 0 13 -7 20 -20 20
-13 0 -20 -7 -20 -20z"/>
<path d="M2576 1082 c-9 -14 9 -115 22 -120 9 -3 12 14 12 62 0 51 -3 66 -14
66 -8 0 -17 -3 -20 -8z"/>
<path d="M2573 878 c2 -7 10 -13 17 -13 7 0 15 6 18 13 2 7 -5 12 -18 12 -13
0 -20 -5 -17 -12z"/>
<path d="M3347 1083 c-13 -12 -8 -130 6 -142 22 -17 27 -3 27 76 0 54 -3 73
-13 73 -8 0 -17 -3 -20 -7z"/>
<path d="M4952 1035 c7 -86 28 -95 28 -12 0 55 -3 67 -16 67 -14 0 -16 -9 -12
-55z"/>
<path d="M4942 878 c7 -19 38 -22 38 -4 0 10 -9 16 -21 16 -12 0 -19 -5 -17
-12z"/>
<path d="M5867 1084 c-14 -14 -8 -131 8 -144 12 -10 15 -7 20 12 9 36 2 131
-11 135 -5 2 -13 0 -17 -3z"/>
<path d="M6360 1015 c0 -69 2 -75 21 -75 19 0 20 4 14 68 -8 72 -11 82 -26 82
-5 0 -9 -34 -9 -75z"/>
<path d="M300 670 c0 -20 7 -20 3780 -20 3773 0 3780 0 3780 20 0 20 -7 20
-3780 20 -3773 0 -3780 0 -3780 -20z"/>
<path d="M920 400 c0 -11 7 -20 15 -20 8 0 15 9 15 20 0 11 -7 20 -15 20 -8 0
-15 -9 -15 -20z"/>
<path d="M4330 400 c0 -11 7 -20 15 -20 8 0 15 9 15 20 0 11 -7 20 -15 20 -8
0 -15 -9 -15 -20z"/>
<path d="M7040 400 c0 -13 7 -20 20 -20 13 0 20 7 20 20 0 13 -7 20 -20 20
-13 0 -20 -7 -20 -20z"/>
</g>
</svg>
